HIERARCHY
ROOT Hips
{
  OFFSET 179.979 97.3047 303.174
  CHANNELS 6 Xposition Yposition Zposition Zrotation Xrotation Yrotation
  JOINT Spine
  {
    OFFSET 0.000859786 9.92346 -1.22733
    CHANNELS 3 Zrotation Xrotation Yrotation
    JOINT Spine1
    {
      OFFSET 0 11.732 0
      CHANNELS 3 Zrotation Xrotation Yrotation
      JOINT Spine2
      {
        OFFSET 0 13.4588 0
        CHANNELS 3 Zrotation Xrotation Yrotation
        JOINT Neck
        {
          OFFSET 2.54812e-05 15.0278 0.877907
          CHANNELS 3 Zrotation Xrotation Yrotation
          JOINT Head
          {
            OFFSET 0 10.3218 3.14243
            CHANNELS 3 Zrotation Xrotation Yrotation
            End Site
            {
              OFFSET 0 0 0
            }
          }
        }
        JOINT LeftShoulder
        {
          OFFSET 6.10582 9.10629 0.757062
          CHANNELS 3 Zrotation Xrotation Yrotation
          JOINT LeftArm
          {
            OFFSET 0 12.9223 0
            CHANNELS 3 Zrotation Xrotation Yrotation
            JOINT LeftForeArm
            {
              OFFSET 0 27.4047 0
              CHANNELS 3 Zrotation Xrotation Yrotation
              JOINT LeftHand
              {
                OFFSET -1.28204e-05 27.6145 0
                CHANNELS 3 Zrotation Xrotation Yrotation
                End Site
                {
                  OFFSET 0 0 0
                }
              }
            }
          }
        }
        JOINT RightShoulder
        {
          OFFSET -6.1057 9.10638 0.757076
          CHANNELS 3 Zrotation Xrotation Yrotation
          JOINT RightArm
          {
            OFFSET 0 12.9223 0
            CHANNELS 3 Zrotation Xrotation Yrotation
            JOINT RightForeArm
            {
              OFFSET 0 27.4047 0
              CHANNELS 3 Zrotation Xrotation Yrotation
              JOINT RightHand
              {
                OFFSET 1.28428e-05 27.6145 1.44975e-05
                CHANNELS 3 Zrotation Xrotation Yrotation
                End Site
                {
                  OFFSET 0 0 0
                }
              }
            }
          }
        }
      }
    }
  }
  JOINT LeftUpLeg
  {
    OFFSET 9.12387 -6.65719 -0.0554031
    CHANNELS 3 Zrotation Xrotation Yrotation
    JOINT LeftLeg
    {
      OFFSET 0 40.5994 0
      CHANNELS 3 Zrotation Xrotation Yrotation
      JOINT LeftFoot
      {
        OFFSET 0 42.099 0
        CHANNELS 3 Zrotation Xrotation Yrotation
        JOINT LeftToeBase
        {
          OFFSET 0 15.7216 0
          CHANNELS 3 Zrotation Xrotation Yrotation
          End Site
          {
            OFFSET 0 0 0
          }
        }
      }
    }
  }
  JOINT RightUpLeg
  {
    OFFSET -9.12503 -6.6556 -0.0553527
    CHANNELS 3 Zrotation Xrotation Yrotation
    JOINT RightLeg
    {
      OFFSET 0 40.5994 0
      CHANNELS 3 Zrotation Xrotation Yrotation
      JOINT RightFoot
      {
        OFFSET 0 42.099 0
        CHANNELS 3 Zrotation Xrotation Yrotation
        JOINT RightToeBase
        {
          OFFSET 0 15.7216 0
          CHANNELS 3 Zrotation Xrotation Yrotation
          End Site
          {
            OFFSET 0 0 0
          }
        }
      }
    }
  }
}
MOTION
Frames:	15
Frame Time:	0.0333333
143.054 99.8965 -66.2637 0.0652286 -4.0432 -2.01884 -0.214127 -5.3859 -0.00955289 -0.394404 3.15197 0.0293047 -0.395952 9.74649 0.0284355 -2.36375 10.079 -5.04676 5.19934 -18.1173 -6.37704 -90.0772 -13.7866 90.3191 11.9818 10.5279 -3.93203 15.0339 -14.5806 -0.693287 -8.68554 -4.00795 18.9817 93.3182 -18.3506 -89.8525 -15.9764 5.77596 4.74491 -14.6676 -15.4149 0.71068 8.61175 -3.89393 -5.41671 -176.579 -3.31199 3.60296 -3.28133 -8.4885 -4.6645 9.19037 65.9537 -7.88725 -0.965257 26.367 -3.6023 176.362 -5.08019 0.304358 3.95631 -8.57268 10.4798 -20.619 68.8149 20.6091 0.963545 26.3682 3.55536 
143.054 99.8963 -66.2627 0.0649863 -4.03369 -2.02702 -0.214127 -5.3859 -0.00955289 -0.397983 3.15197 0.0293061 -0.399664 9.74649 0.028864 -2.37648 10.0669 -5.03561 5.19909 -18.1073 -6.37025 -90.0676 -13.7865 90.3214 11.9593 10.5281 -3.92047 15.0082 -14.5515 -0.693196 -8.70296 -4.0245 18.8877 93.3139 -18.3671 -89.8533 -15.9804 5.76339 4.78626 -14.6529 -15.3977 0.710621 8.62746 -3.86626 -5.40439 -176.579 -3.3056 3.6106 -3.28182 -8.48163 -4.6739 9.20185 65.9471 -7.90105 -0.965257 26.367 -3.6023 176.362 -5.07033 0.299589 3.95928 -8.56785 10.4798 -20.6147 68.8107 20.605 0.963545 26.3682 3.55536 
143.053 99.8959 -66.2606 0.0644769 -4.01429 -2.04406 -0.214127 -5.3859 -0.00955289 -0.405453 3.15197 0.0293091 -0.407415 9.74648 0.0297584 -2.39998 10.0336 -5.01372 5.19834 -18.0791 -6.35573 -90.0465 -13.7893 90.3201 11.9172 10.5211 -3.93187 14.9917 -14.5016 -0.687498 -8.78577 -4.02835 18.7334 93.306 -18.3981 -89.8496 -15.988 5.73592 4.86691 -14.6211 -15.3638 0.710506 8.6551 -3.81299 -5.37566 -176.579 -3.29239 3.62825 -3.28302 -8.4679 -4.69451 9.22752 65.9335 -7.93132 -0.965257 26.367 -3.6023 176.361 -5.05174 0.288433 3.9658 -8.55835 10.4799 -20.6073 68.8036 20.5981 0.963545 26.3682 3.55536 
143.052 99.8969 -66.2609 0.0638102 -3.99479 -2.06357 -0.214127 -5.3859 -0.00955289 -0.412708 3.15197 0.0354153 -0.415355 9.74647 0.035902 -2.42011 10.0084 -4.99563 5.18889 -18.053 -6.34309 -90.025 -13.8063 90.3181 11.8998 10.5075 -3.93571 14.9679 -14.4467 -0.681211 -8.82424 -3.99941 18.6929 93.2975 -18.4238 -89.8468 -15.9902 5.70944 4.94557 -14.5873 -15.3334 0.710098 8.67841 -3.76804 -5.34465 -176.579 -3.27861 3.64496 -3.28437 -8.45488 -4.7161 9.25473 65.9196 -7.96316 -0.965257 26.367 -3.6023 176.36 -5.0312 0.273324 3.97298 -8.55066 10.48 -20.5998 68.7964 20.5912 0.963545 26.3682 3.55536 
143.051 99.8979 -66.2619 0.062964 -3.97588 -2.08555 -0.214127 -5.3859 -0.00955289 -0.419691 3.15197 0.0427219 -0.423209 9.74647 0.0433356 -2.43171 10.0354 -4.98277 5.16067 -18.0698 -6.33189 -90.0084 -13.8159 90.317 11.8872 10.4919 -3.9072 14.9184 -14.3941 -0.674729 -8.79822 -3.98125 18.8226 93.29 -18.4369 -89.8458 -15.9773 5.68555 5.00912 -14.5563 -15.3115 0.709684 8.69577 -3.7435 -5.3172 -176.58 -3.26533 3.65549 -3.28558 -8.44301 -4.73557 9.2786 65.9064 -7.99144 -0.965257 26.367 -3.6023 176.358 -5.00958 0.254134 3.98023 -8.54462 10.4801 -20.5923 68.7892 20.5842 0.963545 26.3682 3.55536 
143.05 99.899 -66.2631 0.0622045 -3.95749 -2.10621 -0.214127 -5.3859 -0.00955289 -0.42584 3.15197 0.0493632 -0.430125 9.74646 0.050051 -2.43486 10.1026 -4.95728 5.13316 -18.1391 -6.30407 -90.0001 -13.8161 90.3166 11.885 10.4824 -3.82617 14.8172 -14.3506 -0.671435 -8.66547 -4.0662 19.0876 93.2824 -18.437 -89.8457 -15.9501 5.67056 5.0515 -14.5305 -15.3034 0.709293 8.70514 -3.75142 -5.29817 -176.58 -3.25264 3.65974 -3.28637 -8.43233 -4.75055 9.29579 65.8944 -8.01258 -0.965257 26.367 -3.6023 176.356 -4.98549 0.233575 3.9868 -8.54073 10.4803 -20.5858 68.7829 20.5781 0.963545 26.3682 3.55536 
143.049 99.9001 -66.2647 0.0615692 -3.9406 -2.12444 -0.214127 -5.3859 -0.00955289 -0.430839 3.15197 0.0531269 -0.435583 9.74646 0.0538356 -2.44787 10.1632 -4.93141 5.11751 -18.2001 -6.28006 -90.0004 -13.8258 90.3151 11.9261 10.4711 -3.63604 14.6131 -14.2917 -0.668672 -8.36748 -4.35715 19.4415 93.2708 -18.4366 -89.8462 -15.927 5.66805 5.0882 -14.5093 -15.2986 0.708897 8.7002 -3.79775 -5.28842 -176.581 -3.23838 3.65942 -3.28704 -8.42572 -4.76151 9.30675 65.8835 -8.02466 -0.965257 26.367 -3.6023 176.356 -4.96716 0.212926 3.99387 -8.53831 10.4805 -20.5793 68.7767 20.5721 0.963545 26.3682 3.55536 
143.048 99.9011 -66.2678 0.0610785 -3.926 -2.13948 -0.214127 -5.3859 -0.00955289 -0.434153 3.15197 0.0552861 -0.439162 9.74645 0.0560297 -2.47924 10.1991 -4.91329 5.11644 -18.2242 -6.27169 -90.0093 -13.8384 90.3122 11.9683 10.4667 -3.44248 14.3851 -14.2224 -0.664452 -7.97316 -4.73271 19.8106 93.2499 -18.4385 -89.8466 -15.9126 5.68398 5.13254 -14.4959 -15.2957 0.708501 8.69362 -3.85108 -5.25827 -176.582 -3.22402 3.65462 -3.28745 -8.42184 -4.76807 9.31005 65.8734 -8.0288 -0.965257 26.367 -3.6023 176.356 -4.94771 0.193493 3.99984 -8.53669 10.4807 -20.5731 68.7707 20.5663 0.963545 26.3682 3.55536 
143.048 99.9019 -66.2729 0.0607225 -3.9137 -2.1514 -0.214127 -5.3859 -0.00955289 -0.43569 3.15197 0.056613 -0.440823 9.74645 0.0573831 -2.51816 10.2261 -4.90121 5.12468 -18.2367 -6.2729 -90.0226 -13.8496 90.3087 11.9729 10.482 -3.36554 14.2411 -14.1519 -0.66018 -7.66102 -5.00823 20.0564 93.2203 -18.446 -89.8469 -15.9059 5.72183 5.18973 -14.4943 -15.2934 0.70811 8.6919 -3.90465 -5.2007 -176.582 -3.21007 3.6446 -3.28755 -8.42094 -4.76966 9.30794 65.8648 -8.02723 -0.965257 26.367 -3.6023 176.355 -4.9286 0.17538 4.00518 -8.53518 10.4856 -20.5674 68.7652 20.561 0.963545 26.3682 3.55536 
143.045 99.9023 -66.2806 0.0605175 -3.90409 -2.15969 -0.214127 -5.3859 -0.00955289 -0.436995 3.15197 0.0579095 -0.442266 9.74645 0.0587415 -2.54861 10.2449 -4.90116 5.14033 -18.2406 -6.28436 -90.0344 -13.8573 90.3059 11.9617 10.5112 -3.34669 14.1528 -14.0759 -0.656874 -7.48497 -5.19002 19.9904 93.1963 -18.4611 -89.8457 -15.9084 5.76812 5.25925 -14.5026 -15.2914 0.707733 8.70611 -3.96595 -5.14133 -176.582 -3.19445 3.62872 -3.28297 -8.42444 -4.76515 9.2962 65.857 -8.01628 -0.965257 26.367 -3.6023 176.355 -4.91366 0.159378 4.01064 -8.53417 10.4911 -20.5621 68.7601 20.556 0.963545 26.3682 3.55536 
143.042 99.9026 -66.2904 0.0604766 -3.8972 -2.1641 -0.214127 -5.3859 -0.00955289 -0.438059 3.15197 0.0591302 -0.443473 9.74645 0.0600469 -2.57276 10.2528 -4.91316 5.16386 -18.2411 -6.3066 -90.0446 -13.8638 90.3038 11.9425 10.5517 -3.36788 14.1061 -14.0191 -0.655602 -7.38588 -5.28415 19.8407 93.1782 -18.4819 -89.8439 -15.9193 5.81773 5.33471 -14.517 -15.2893 0.707377 8.73478 -3.9979 -5.12836 -176.583 -3.17787 3.60245 -3.27553 -8.43116 -4.75205 9.2707 65.8496 -7.99235 -0.965257 26.367 -3.6023 176.355 -4.89744 0.14597 4.01329 -8.53395 10.4973 -20.5691 68.7541 20.5622 0.963545 26.3682 3.55536 
143.039 99.9029 -66.3025 0.060513 -3.8938 -2.16545 -0.214127 -5.3859 -0.00955289 -0.438875 3.15197 0.0602298 -0.444424 9.74645 0.0612412 -2.5854 10.247 -4.92725 5.18112 -18.2294 -6.32685 -90.051 -13.87 90.303 11.9166 10.6047 -3.42938 14.0964 -14.0076 -0.655522 -7.31177 -5.2521 19.7356 93.1737 -18.5073 -89.8409 -15.9388 5.85735 5.40794 -14.5319 -15.2867 0.707052 8.76876 -3.93741 -5.23886 -176.583 -3.16337 3.5575 -3.26313 -8.4374 -4.72584 9.22415 65.8413 -7.94899 -0.965257 26.367 -3.6023 176.355 -4.88308 0.134314 4.0154 -8.53479 10.5039 -20.5771 68.748 20.5693 0.963545 26.3682 3.55536 
143.036 99.9033 -66.3168 0.0604627 -3.89492 -2.16557 -0.214127 -5.3859 -0.00955289 -0.439439 3.15598 0.0611632 -0.445103 9.75044 0.0622671 -2.58354 10.2318 -4.94347 5.18816 -18.2051 -6.34401 -90.0535 -13.8673 90.3031 11.8798 10.6813 -3.55731 14.126 -14.0425 -0.656061 -7.24917 -5.17496 19.726 93.1822 -18.5386 -89.8353 -15.968 5.89176 5.43985 -14.536 -15.313 0.706864 8.79611 -3.86289 -5.2616 -176.584 -3.15408 3.51734 -3.25252 -8.44271 -4.70168 9.18143 65.8338 -7.90897 -0.965257 26.367 -3.6023 176.355 -4.87483 0.122842 4.01705 -8.53699 10.5105 -20.5868 68.743 20.578 0.963545 26.3682 3.55536 
143.032 99.9039 -66.3334 0.0603136 -3.90072 -2.16455 -0.214127 -5.3859 -0.00955289 -0.439741 3.16213 0.0618851 -0.445489 9.7566 0.0630662 -2.5703 10.2141 -4.96395 5.18657 -18.1767 -6.36136 -90.0548 -13.8497 90.3032 11.8358 10.7508 -3.67867 14.1654 -14.0698 -0.656488 -7.19228 -5.14305 19.7578 93.191 -18.5749 -89.8302 -15.9957 5.92206 5.46527 -14.5386 -15.335 0.706713 8.81214 -3.80059 -5.22699 -176.584 -3.14577 3.48196 -3.24358 -8.45068 -4.67948 9.1418 65.8264 -7.8718 -0.965257 26.367 -3.6023 176.356 -4.86631 0.114519 4.01874 -8.54321 10.5165 -20.5896 68.7393 20.5804 0.963545 26.3682 3.55536 
143.028 99.9045 -66.3525 0.0600896 -3.91042 -2.16247 -0.214127 -5.3859 -0.00955289 -0.439775 3.17037 0.0623501 -0.445562 9.76483 0.0635803 -2.55372 10.1865 -4.97555 5.18777 -18.1418 -6.36847 -90.055 -13.8471 90.304 11.818 10.8051 -3.78088 14.2006 -14.0791 -0.656635 -7.1363 -5.15881 19.8043 93.1957 -18.6082 -89.8265 -16.0217 5.9465 5.47414 -14.5342 -15.3388 0.70656 8.82101 -3.77981 -5.17606 -176.585 -3.1401 3.45227 -3.23619 -8.45886 -4.65948 9.10584 65.8192 -7.83816 -0.965257 26.367 -3.6023 176.357 -4.85974 0.111401 4.01995 -8.55186 10.5192 -20.5913 68.7366 20.5819 0.963545 26.3682 3.55536 
